<?xml version="1.0" encoding="utf-8" ?>
<svg baseProfile="full" height="180" version="1.1" width="180" xmlns="http://www.w3.org/2000/svg" xmlns:ev="http://www.w3.org/2001/xml-events" xmlns:xlink="http://www.w3.org/1999/xlink"><defs /><rect fill="white" height="20" stroke="black" width="20" x="20" y="20" /><rect fill="white" height="20" stroke="black" width="20" x="40" y="20" /><rect fill="white" height="20" stroke="black" width="20" x="60" y="20" /><rect fill="white" height="20" stroke="black" width="20" x="80" y="20" /><rect fill="white" height="20" stroke="black" width="20" x="100" y="20" /><rect fill="white" height="20" stroke="black" width="20" x="120" y="20" /><rect fill="white" height="20" stroke="black" width="20" x="140" y="20" /><rect fill="white" height="20" stroke="black" width="20" x="160" y="20" /><rect fill="white" height="20" stroke="black" width="20" x="20" y="40" /><rect fill="white" height="20" stroke="black" width="20" x="40" y="40" /><rect fill="white" height="20" stroke="black" width="20" x="60" y="40" /><rect fill="white" height="20" stroke="black" width="20" x="80" y="40" /><rect fill="white" height="20" stroke="black" width="20" x="100" y="40" /><rect fill="white" height="20" stroke="black" width="20" x="120" y="40" /><rect fill="white" height="20" stroke="black" width="20" x="140" y="40" /><rect fill="white" height="20" stroke="black" width="20" x="160" y="40" /><rect fill="white" height="20" stroke="black" width="20" x="20" y="60" /><rect fill="white" height="20" stroke="black" width="20" x="40" y="60" /><rect fill="white" height="20" stroke="black" width="20" x="60" y="60" /><rect fill="white" height="20" stroke="black" width="20" x="80" y="60" /><rect fill="white" height="20" stroke="black" width="20" x="100" y="60" /><rect fill="white" height="20" stroke="black" width="20" x="120" y="60" /><rect fill="white" height="20" stroke="black" width="20" x="140" y="60" /><rect fill="white" height="20" stroke="black" width="20" x="160" y="60" /><rect fill="white" height="20" stroke="black" width="20" x="20" y="80" /><rect fill="white" height="20" stroke="black" width="20" x="40" y="80" /><rect fill="white" height="20" stroke="black" width="20" x="60" y="80" /><rect fill="white" height="20" stroke="black" width="20" x="80" y="80" /><rect fill="white" height="20" stroke="black" width="20" x="100" y="80" /><rect fill="white" height="20" stroke="black" width="20" x="120" y="80" /><rect fill="white" height="20" stroke="black" width="20" x="140" y="80" /><rect fill="white" height="20" stroke="black" width="20" x="160" y="80" /><rect fill="white" height="20" stroke="black" width="20" x="20" y="100" /><rect fill="white" height="20" stroke="black" width="20" x="40" y="100" /><rect fill="white" height="20" stroke="black" width="20" x="60" y="100" /><rect fill="white" height="20" stroke="black" width="20" x="80" y="100" /><rect fill="white" height="20" stroke="black" width="20" x="100" y="100" /><rect fill="white" height="20" stroke="black" width="20" x="120" y="100" /><rect fill="white" height="20" stroke="black" width="20" x="140" y="100" /><rect fill="white" height="20" stroke="black" width="20" x="160" y="100" /><rect fill="white" height="20" stroke="black" width="20" x="20" y="120" /><rect fill="white" height="20" stroke="black" width="20" x="40" y="120" /><rect fill="white" height="20" stroke="black" width="20" x="60" y="120" /><rect fill="white" height="20" stroke="black" width="20" x="80" y="120" /><rect fill="white" height="20" stroke="black" width="20" x="100" y="120" /><rect fill="white" height="20" stroke="black" width="20" x="120" y="120" /><rect fill="white" height="20" stroke="black" width="20" x="140" y="120" /><rect fill="white" height="20" stroke="black" width="20" x="160" y="120" /><rect fill="white" height="20" stroke="black" width="20" x="20" y="140" /><rect fill="white" height="20" stroke="black" width="20" x="40" y="140" /><rect fill="white" height="20" stroke="black" width="20" x="60" y="140" /><rect fill="white" height="20" stroke="black" width="20" x="80" y="140" /><rect fill="white" height="20" stroke="black" width="20" x="100" y="140" /><rect fill="white" height="20" stroke="black" width="20" x="120" y="140" /><rect fill="white" height="20" stroke="black" width="20" x="140" y="140" /><rect fill="white" height="20" stroke="black" width="20" x="160" y="140" /><rect fill="white" height="20" stroke="black" width="20" x="20" y="160" /><rect fill="white" height="20" stroke="black" width="20" x="40" y="160" /><rect fill="white" height="20" stroke="black" width="20" x="60" y="160" /><rect fill="white" height="20" stroke="black" width="20" x="80" y="160" /><rect fill="white" height="20" stroke="black" width="20" x="100" y="160" /><rect fill="white" height="20" stroke="black" width="20" x="120" y="160" /><rect fill="white" height="20" stroke="black" width="20" x="140" y="160" /><rect fill="white" height="20" stroke="black" width="20" x="160" y="160" /><rect fill="rgb(175,175,255)" height="20" stroke="black" width="20" x="20" y="20" /><text alignment-baseline="central" font-size="8px" text-anchor="middle" x="30" y="25">T0</text><text alignment-baseline="central" font-size="8px" text-anchor="middle" x="30" y="35">V0</text><rect fill="rgb(175,255,175)" height="20" stroke="black" width="20" x="40" y="20" /><text alignment-baseline="central" font-size="8px" text-anchor="middle" x="50" y="25">T1</text><text alignment-baseline="central" font-size="8px" text-anchor="middle" x="50" y="35">V0</text><rect fill="rgb(255,255,175)" height="20" stroke="black" width="20" x="60" y="20" /><text alignment-baseline="central" font-size="8px" text-anchor="middle" x="70" y="25">T2</text><text alignment-baseline="central" font-size="8px" text-anchor="middle" x="70" y="35">V0</text><rect fill="rgb(255,175,175)" height="20" stroke="black" width="20" x="80" y="20" /><text alignment-baseline="central" font-size="8px" text-anchor="middle" x="90" y="25">T3</text><text alignment-baseline="central" font-size="8px" text-anchor="middle" x="90" y="35">V0</text><rect fill="rgb(210,210,255)" height="20" stroke="black" width="20" x="100" y="20" /><text alignment-baseline="central" font-size="8px" text-anchor="middle" x="110" y="25">T4</text><text alignment-baseline="central" font-size="8px" text-anchor="middle" x="110" y="35">V0</text><rect fill="rgb(210,255,210)" height="20" stroke="black" width="20" x="120" y="20" /><text alignment-baseline="central" font-size="8px" text-anchor="middle" x="130" y="25">T5</text><text alignment-baseline="central" font-size="8px" text-anchor="middle" x="130" y="35">V0</text><rect fill="rgb(255,255,210)" height="20" stroke="black" width="20" x="140" y="20" /><text alignment-baseline="central" font-size="8px" text-anchor="middle" x="150" y="25">T6</text><text alignment-baseline="central" font-size="8px" text-anchor="middle" x="150" y="35">V0</text><rect fill="rgb(255,210,210)" height="20" stroke="black" width="20" x="160" y="20" /><text alignment-baseline="central" font-size="8px" text-anchor="middle" x="170" y="25">T7</text><text alignment-baseline="central" font-size="8px" text-anchor="middle" x="170" y="35">V0</text><rect fill="rgb(175,175,255)" height="20" stroke="black" width="20" x="20" y="60" /><text alignment-baseline="central" font-size="8px" text-anchor="middle" x="30" y="65">T8</text><text alignment-baseline="central" font-size="8px" text-anchor="middle" x="30" y="75">V0</text><rect fill="rgb(175,255,175)" height="20" stroke="black" width="20" x="40" y="60" /><text alignment-baseline="central" font-size="8px" text-anchor="middle" x="50" y="65">T9</text><text alignment-baseline="central" font-size="8px" text-anchor="middle" x="50" y="75">V0</text><rect fill="rgb(255,255,175)" height="20" stroke="black" width="20" x="60" y="60" /><text alignment-baseline="central" font-size="8px" text-anchor="middle" x="70" y="65">T10</text><text alignment-baseline="central" font-size="8px" text-anchor="middle" x="70" y="75">V0</text><rect fill="rgb(255,175,175)" height="20" stroke="black" width="20" x="80" y="60" /><text alignment-baseline="central" font-size="8px" text-anchor="middle" x="90" y="65">T11</text><text alignment-baseline="central" font-size="8px" text-anchor="middle" x="90" y="75">V0</text><rect fill="rgb(210,210,255)" height="20" stroke="black" width="20" x="100" y="60" /><text alignment-baseline="central" font-size="8px" text-anchor="middle" x="110" y="65">T12</text><text alignment-baseline="central" font-size="8px" text-anchor="middle" x="110" y="75">V0</text><rect fill="rgb(210,255,210)" height="20" stroke="black" width="20" x="120" y="60" /><text alignment-baseline="central" font-size="8px" text-anchor="middle" x="130" y="65">T13</text><text alignment-baseline="central" font-size="8px" text-anchor="middle" x="130" y="75">V0</text><rect fill="rgb(255,255,210)" height="20" stroke="black" width="20" x="140" y="60" /><text alignment-baseline="central" font-size="8px" text-anchor="middle" x="150" y="65">T14</text><text alignment-baseline="central" font-size="8px" text-anchor="middle" x="150" y="75">V0</text><rect fill="rgb(255,210,210)" height="20" stroke="black" width="20" x="160" y="60" /><text alignment-baseline="central" font-size="8px" text-anchor="middle" x="170" y="65">T15</text><text alignment-baseline="central" font-size="8px" text-anchor="middle" x="170" y="75">V0</text><rect fill="rgb(175,175,255)" height="20" stroke="black" width="20" x="20" y="100" /><text alignment-baseline="central" font-size="8px" text-anchor="middle" x="30" y="105">T16</text><text alignment-baseline="central" font-size="8px" text-anchor="middle" x="30" y="115">V0</text><rect fill="rgb(175,255,175)" height="20" stroke="black" width="20" x="40" y="100" /><text alignment-baseline="central" font-size="8px" text-anchor="middle" x="50" y="105">T17</text><text alignment-baseline="central" font-size="8px" text-anchor="middle" x="50" y="115">V0</text><rect fill="rgb(255,255,175)" height="20" stroke="black" width="20" x="60" y="100" /><text alignment-baseline="central" font-size="8px" text-anchor="middle" x="70" y="105">T18</text><text alignment-baseline="central" font-size="8px" text-anchor="middle" x="70" y="115">V0</text><rect fill="rgb(255,175,175)" height="20" stroke="black" width="20" x="80" y="100" /><text alignment-baseline="central" font-size="8px" text-anchor="middle" x="90" y="105">T19</text><text alignment-baseline="central" font-size="8px" text-anchor="middle" x="90" y="115">V0</text><rect fill="rgb(210,210,255)" height="20" stroke="black" width="20" x="100" y="100" /><text alignment-baseline="central" font-size="8px" text-anchor="middle" x="110" y="105">T20</text><text alignment-baseline="central" font-size="8px" text-anchor="middle" x="110" y="115">V0</text><rect fill="rgb(210,255,210)" height="20" stroke="black" width="20" x="120" y="100" /><text alignment-baseline="central" font-size="8px" text-anchor="middle" x="130" y="105">T21</text><text alignment-baseline="central" font-size="8px" text-anchor="middle" x="130" y="115">V0</text><rect fill="rgb(255,255,210)" height="20" stroke="black" width="20" x="140" y="100" /><text alignment-baseline="central" font-size="8px" text-anchor="middle" x="150" y="105">T22</text><text alignment-baseline="central" font-size="8px" text-anchor="middle" x="150" y="115">V0</text><rect fill="rgb(255,210,210)" height="20" stroke="black" width="20" x="160" y="100" /><text alignment-baseline="central" font-size="8px" text-anchor="middle" x="170" y="105">T23</text><text alignment-baseline="central" font-size="8px" text-anchor="middle" x="170" y="115">V0</text><rect fill="rgb(175,175,255)" height="20" stroke="black" width="20" x="20" y="140" /><text alignment-baseline="central" font-size="8px" text-anchor="middle" x="30" y="145">T24</text><text alignment-baseline="central" font-size="8px" text-anchor="middle" x="30" y="155">V0</text><rect fill="rgb(175,255,175)" height="20" stroke="black" width="20" x="40" y="140" /><text alignment-baseline="central" font-size="8px" text-anchor="middle" x="50" y="145">T25</text><text alignment-baseline="central" font-size="8px" text-anchor="middle" x="50" y="155">V0</text><rect fill="rgb(255,255,175)" height="20" stroke="black" width="20" x="60" y="140" /><text alignment-baseline="central" font-size="8px" text-anchor="middle" x="70" y="145">T26</text><text alignment-baseline="central" font-size="8px" text-anchor="middle" x="70" y="155">V0</text><rect fill="rgb(255,175,175)" height="20" stroke="black" width="20" x="80" y="140" /><text alignment-baseline="central" font-size="8px" text-anchor="middle" x="90" y="145">T27</text><text alignment-baseline="central" font-size="8px" text-anchor="middle" x="90" y="155">V0</text><rect fill="rgb(210,210,255)" height="20" stroke="black" width="20" x="100" y="140" /><text alignment-baseline="central" font-size="8px" text-anchor="middle" x="110" y="145">T28</text><text alignment-baseline="central" font-size="8px" text-anchor="middle" x="110" y="155">V0</text><rect fill="rgb(210,255,210)" height="20" stroke="black" width="20" x="120" y="140" /><text alignment-baseline="central" font-size="8px" text-anchor="middle" x="130" y="145">T29</text><text alignment-baseline="central" font-size="8px" text-anchor="middle" x="130" y="155">V0</text><rect fill="rgb(255,255,210)" height="20" stroke="black" width="20" x="140" y="140" /><text alignment-baseline="central" font-size="8px" text-anchor="middle" x="150" y="145">T30</text><text alignment-baseline="central" font-size="8px" text-anchor="middle" x="150" y="155">V0</text><rect fill="rgb(255,210,210)" height="20" stroke="black" width="20" x="160" y="140" /><text alignment-baseline="central" font-size="8px" text-anchor="middle" x="170" y="145">T31</text><text alignment-baseline="central" font-size="8px" text-anchor="middle" x="170" y="155">V0</text><rect fill="rgb(175,175,255)" height="20" stroke="black" width="20" x="20" y="40" /><text alignment-baseline="central" font-size="8px" text-anchor="middle" x="30" y="45">T32</text><text alignment-baseline="central" font-size="8px" text-anchor="middle" x="30" y="55">V0</text><rect fill="rgb(175,255,175)" height="20" stroke="black" width="20" x="40" y="40" /><text alignment-baseline="central" font-size="8px" text-anchor="middle" x="50" y="45">T33</text><text alignment-baseline="central" font-size="8px" text-anchor="middle" x="50" y="55">V0</text><rect fill="rgb(255,255,175)" height="20" stroke="black" width="20" x="60" y="40" /><text alignment-baseline="central" font-size="8px" text-anchor="middle" x="70" y="45">T34</text><text alignment-baseline="central" font-size="8px" text-anchor="middle" x="70" y="55">V0</text><rect fill="rgb(255,175,175)" height="20" stroke="black" width="20" x="80" y="40" /><text alignment-baseline="central" font-size="8px" text-anchor="middle" x="90" y="45">T35</text><text alignment-baseline="central" font-size="8px" text-anchor="middle" x="90" y="55">V0</text><rect fill="rgb(210,210,255)" height="20" stroke="black" width="20" x="100" y="40" /><text alignment-baseline="central" font-size="8px" text-anchor="middle" x="110" y="45">T36</text><text alignment-baseline="central" font-size="8px" text-anchor="middle" x="110" y="55">V0</text><rect fill="rgb(210,255,210)" height="20" stroke="black" width="20" x="120" y="40" /><text alignment-baseline="central" font-size="8px" text-anchor="middle" x="130" y="45">T37</text><text alignment-baseline="central" font-size="8px" text-anchor="middle" x="130" y="55">V0</text><rect fill="rgb(255,255,210)" height="20" stroke="black" width="20" x="140" y="40" /><text alignment-baseline="central" font-size="8px" text-anchor="middle" x="150" y="45">T38</text><text alignment-baseline="central" font-size="8px" text-anchor="middle" x="150" y="55">V0</text><rect fill="rgb(255,210,210)" height="20" stroke="black" width="20" x="160" y="40" /><text alignment-baseline="central" font-size="8px" text-anchor="middle" x="170" y="45">T39</text><text alignment-baseline="central" font-size="8px" text-anchor="middle" x="170" y="55">V0</text><rect fill="rgb(175,175,255)" height="20" stroke="black" width="20" x="20" y="80" /><text alignment-baseline="central" font-size="8px" text-anchor="middle" x="30" y="85">T40</text><text alignment-baseline="central" font-size="8px" text-anchor="middle" x="30" y="95">V0</text><rect fill="rgb(175,255,175)" height="20" stroke="black" width="20" x="40" y="80" /><text alignment-baseline="central" font-size="8px" text-anchor="middle" x="50" y="85">T41</text><text alignment-baseline="central" font-size="8px" text-anchor="middle" x="50" y="95">V0</text><rect fill="rgb(255,255,175)" height="20" stroke="black" width="20" x="60" y="80" /><text alignment-baseline="central" font-size="8px" text-anchor="middle" x="70" y="85">T42</text><text alignment-baseline="central" font-size="8px" text-anchor="middle" x="70" y="95">V0</text><rect fill="rgb(255,175,175)" height="20" stroke="black" width="20" x="80" y="80" /><text alignment-baseline="central" font-size="8px" text-anchor="middle" x="90" y="85">T43</text><text alignment-baseline="central" font-size="8px" text-anchor="middle" x="90" y="95">V0</text><rect fill="rgb(210,210,255)" height="20" stroke="black" width="20" x="100" y="80" /><text alignment-baseline="central" font-size="8px" text-anchor="middle" x="110" y="85">T44</text><text alignment-baseline="central" font-size="8px" text-anchor="middle" x="110" y="95">V0</text><rect fill="rgb(210,255,210)" height="20" stroke="black" width="20" x="120" y="80" /><text alignment-baseline="central" font-size="8px" text-anchor="middle" x="130" y="85">T45</text><text alignment-baseline="central" font-size="8px" text-anchor="middle" x="130" y="95">V0</text><rect fill="rgb(255,255,210)" height="20" stroke="black" width="20" x="140" y="80" /><text alignment-baseline="central" font-size="8px" text-anchor="middle" x="150" y="85">T46</text><text alignment-baseline="central" font-size="8px" text-anchor="middle" x="150" y="95">V0</text><rect fill="rgb(255,210,210)" height="20" stroke="black" width="20" x="160" y="80" /><text alignment-baseline="central" font-size="8px" text-anchor="middle" x="170" y="85">T47</text><text alignment-baseline="central" font-size="8px" text-anchor="middle" x="170" y="95">V0</text><rect fill="rgb(175,175,255)" height="20" stroke="black" width="20" x="20" y="120" /><text alignment-baseline="central" font-size="8px" text-anchor="middle" x="30" y="125">T48</text><text alignment-baseline="central" font-size="8px" text-anchor="middle" x="30" y="135">V0</text><rect fill="rgb(175,255,175)" height="20" stroke="black" width="20" x="40" y="120" /><text alignment-baseline="central" font-size="8px" text-anchor="middle" x="50" y="125">T49</text><text alignment-baseline="central" font-size="8px" text-anchor="middle" x="50" y="135">V0</text><rect fill="rgb(255,255,175)" height="20" stroke="black" width="20" x="60" y="120" /><text alignment-baseline="central" font-size="8px" text-anchor="middle" x="70" y="125">T50</text><text alignment-baseline="central" font-size="8px" text-anchor="middle" x="70" y="135">V0</text><rect fill="rgb(255,175,175)" height="20" stroke="black" width="20" x="80" y="120" /><text alignment-baseline="central" font-size="8px" text-anchor="middle" x="90" y="125">T51</text><text alignment-baseline="central" font-size="8px" text-anchor="middle" x="90" y="135">V0</text><rect fill="rgb(210,210,255)" height="20" stroke="black" width="20" x="100" y="120" /><text alignment-baseline="central" font-size="8px" text-anchor="middle" x="110" y="125">T52</text><text alignment-baseline="central" font-size="8px" text-anchor="middle" x="110" y="135">V0</text><rect fill="rgb(210,255,210)" height="20" stroke="black" width="20" x="120" y="120" /><text alignment-baseline="central" font-size="8px" text-anchor="middle" x="130" y="125">T53</text><text alignment-baseline="central" font-size="8px" text-anchor="middle" x="130" y="135">V0</text><rect fill="rgb(255,255,210)" height="20" stroke="black" width="20" x="140" y="120" /><text alignment-baseline="central" font-size="8px" text-anchor="middle" x="150" y="125">T54</text><text alignment-baseline="central" font-size="8px" text-anchor="middle" x="150" y="135">V0</text><rect fill="rgb(255,210,210)" height="20" stroke="black" width="20" x="160" y="120" /><text alignment-baseline="central" font-size="8px" text-anchor="middle" x="170" y="125">T55</text><text alignment-baseline="central" font-size="8px" text-anchor="middle" x="170" y="135">V0</text><rect fill="rgb(175,175,255)" height="20" stroke="black" width="20" x="20" y="160" /><text alignment-baseline="central" font-size="8px" text-anchor="middle" x="30" y="165">T56</text><text alignment-baseline="central" font-size="8px" text-anchor="middle" x="30" y="175">V0</text><rect fill="rgb(175,255,175)" height="20" stroke="black" width="20" x="40" y="160" /><text alignment-baseline="central" font-size="8px" text-anchor="middle" x="50" y="165">T57</text><text alignment-baseline="central" font-size="8px" text-anchor="middle" x="50" y="175">V0</text><rect fill="rgb(255,255,175)" height="20" stroke="black" width="20" x="60" y="160" /><text alignment-baseline="central" font-size="8px" text-anchor="middle" x="70" y="165">T58</text><text alignment-baseline="central" font-size="8px" text-anchor="middle" x="70" y="175">V0</text><rect fill="rgb(255,175,175)" height="20" stroke="black" width="20" x="80" y="160" /><text alignment-baseline="central" font-size="8px" text-anchor="middle" x="90" y="165">T59</text><text alignment-baseline="central" font-size="8px" text-anchor="middle" x="90" y="175">V0</text><rect fill="rgb(210,210,255)" height="20" stroke="black" width="20" x="100" y="160" /><text alignment-baseline="central" font-size="8px" text-anchor="middle" x="110" y="165">T60</text><text alignment-baseline="central" font-size="8px" text-anchor="middle" x="110" y="175">V0</text><rect fill="rgb(210,255,210)" height="20" stroke="black" width="20" x="120" y="160" /><text alignment-baseline="central" font-size="8px" text-anchor="middle" x="130" y="165">T61</text><text alignment-baseline="central" font-size="8px" text-anchor="middle" x="130" y="175">V0</text><rect fill="rgb(255,255,210)" height="20" stroke="black" width="20" x="140" y="160" /><text alignment-baseline="central" font-size="8px" text-anchor="middle" x="150" y="165">T62</text><text alignment-baseline="central" font-size="8px" text-anchor="middle" x="150" y="175">V0</text><rect fill="rgb(255,210,210)" height="20" stroke="black" width="20" x="160" y="160" /><text alignment-baseline="central" font-size="8px" text-anchor="middle" x="170" y="165">T63</text><text alignment-baseline="central" font-size="8px" text-anchor="middle" x="170" y="175">V0</text><text alignment-baseline="central" font-size="8px" text-anchor="middle" x="30" y="10">0</text><text alignment-baseline="central" font-size="8px" text-anchor="middle" x="50" y="10">1</text><text alignment-baseline="central" font-size="8px" text-anchor="middle" x="70" y="10">2</text><text alignment-baseline="central" font-size="8px" text-anchor="middle" x="90" y="10">3</text><text alignment-baseline="central" font-size="8px" text-anchor="middle" x="110" y="10">4</text><text alignment-baseline="central" font-size="8px" text-anchor="middle" x="130" y="10">5</text><text alignment-baseline="central" font-size="8px" text-anchor="middle" x="150" y="10">6</text><text alignment-baseline="central" font-size="8px" text-anchor="middle" x="170" y="10">7</text><text alignment-baseline="central" font-size="8px" text-anchor="middle" x="10" y="30">0</text><text alignment-baseline="central" font-size="8px" text-anchor="middle" x="10" y="50">1</text><text alignment-baseline="central" font-size="8px" text-anchor="middle" x="10" y="70">2</text><text alignment-baseline="central" font-size="8px" text-anchor="middle" x="10" y="90">3</text><text alignment-baseline="central" font-size="8px" text-anchor="middle" x="10" y="110">4</text><text alignment-baseline="central" font-size="8px" text-anchor="middle" x="10" y="130">5</text><text alignment-baseline="central" font-size="8px" text-anchor="middle" x="10" y="150">6</text><text alignment-baseline="central" font-size="8px" text-anchor="middle" x="10" y="170">7</text></svg>