<?xml version="1.0" encoding="utf-8" ?>
<svg baseProfile="full" height="40" version="1.1" width="660" xmlns="http://www.w3.org/2000/svg" xmlns:ev="http://www.w3.org/2001/xml-events" xmlns:xlink="http://www.w3.org/1999/xlink"><defs /><rect fill="white" height="20" stroke="black" width="20" x="20" y="20" /><rect fill="white" height="20" stroke="black" width="20" x="40" y="20" /><rect fill="white" height="20" stroke="black" width="20" x="60" y="20" /><rect fill="white" height="20" stroke="black" width="20" x="80" y="20" /><rect fill="white" height="20" stroke="black" width="20" x="100" y="20" /><rect fill="white" height="20" stroke="black" width="20" x="120" y="20" /><rect fill="white" height="20" stroke="black" width="20" x="140" y="20" /><rect fill="white" height="20" stroke="black" width="20" x="160" y="20" /><rect fill="white" height="20" stroke="black" width="20" x="180" y="20" /><rect fill="white" height="20" stroke="black" width="20" x="200" y="20" /><rect fill="white" height="20" stroke="black" width="20" x="220" y="20" /><rect fill="white" height="20" stroke="black" width="20" x="240" y="20" /><rect fill="white" height="20" stroke="black" width="20" x="260" y="20" /><rect fill="white" height="20" stroke="black" width="20" x="280" y="20" /><rect fill="white" height="20" stroke="black" width="20" x="300" y="20" /><rect fill="white" height="20" stroke="black" width="20" x="320" y="20" /><rect fill="white" height="20" stroke="black" width="20" x="340" y="20" /><rect fill="white" height="20" stroke="black" width="20" x="360" y="20" /><rect fill="white" height="20" stroke="black" width="20" x="380" y="20" /><rect fill="white" height="20" stroke="black" width="20" x="400" y="20" /><rect fill="white" height="20" stroke="black" width="20" x="420" y="20" /><rect fill="white" height="20" stroke="black" width="20" x="440" y="20" /><rect fill="white" height="20" stroke="black" width="20" x="460" y="20" /><rect fill="white" height="20" stroke="black" width="20" x="480" y="20" /><rect fill="white" height="20" stroke="black" width="20" x="500" y="20" /><rect fill="white" height="20" stroke="black" width="20" x="520" y="20" /><rect fill="white" height="20" stroke="black" width="20" x="540" y="20" /><rect fill="white" height="20" stroke="black" width="20" x="560" y="20" /><rect fill="white" height="20" stroke="black" width="20" x="580" y="20" /><rect fill="white" height="20" stroke="black" width="20" x="600" y="20" /><rect fill="white" height="20" stroke="black" width="20" x="620" y="20" /><rect fill="white" height="20" stroke="black" width="20" x="640" y="20" /><rect fill="rgb(175,175,255)" height="20" stroke="black" width="20" x="20" y="20" /><text alignment-baseline="central" font-size="8px" text-anchor="middle" x="30" y="25">T0</text><text alignment-baseline="central" font-size="8px" text-anchor="middle" x="30" y="35">V0</text><rect fill="rgb(175,255,175)" height="20" stroke="black" width="20" x="40" y="20" /><text alignment-baseline="central" font-size="8px" text-anchor="middle" x="50" y="25">T1</text><text alignment-baseline="central" font-size="8px" text-anchor="middle" x="50" y="35">V0</text><rect fill="rgb(255,255,175)" height="20" stroke="black" width="20" x="60" y="20" /><text alignment-baseline="central" font-size="8px" text-anchor="middle" x="70" y="25">T2</text><text alignment-baseline="central" font-size="8px" text-anchor="middle" x="70" y="35">V0</text><rect fill="rgb(255,175,175)" height="20" stroke="black" width="20" x="80" y="20" /><text alignment-baseline="central" font-size="8px" text-anchor="middle" x="90" y="25">T3</text><text alignment-baseline="central" font-size="8px" text-anchor="middle" x="90" y="35">V0</text><rect fill="rgb(210,210,255)" height="20" stroke="black" width="20" x="100" y="20" /><text alignment-baseline="central" font-size="8px" text-anchor="middle" x="110" y="25">T4</text><text alignment-baseline="central" font-size="8px" text-anchor="middle" x="110" y="35">V0</text><rect fill="rgb(210,255,210)" height="20" stroke="black" width="20" x="120" y="20" /><text alignment-baseline="central" font-size="8px" text-anchor="middle" x="130" y="25">T5</text><text alignment-baseline="central" font-size="8px" text-anchor="middle" x="130" y="35">V0</text><rect fill="rgb(255,255,210)" height="20" stroke="black" width="20" x="140" y="20" /><text alignment-baseline="central" font-size="8px" text-anchor="middle" x="150" y="25">T6</text><text alignment-baseline="central" font-size="8px" text-anchor="middle" x="150" y="35">V0</text><rect fill="rgb(255,210,210)" height="20" stroke="black" width="20" x="160" y="20" /><text alignment-baseline="central" font-size="8px" text-anchor="middle" x="170" y="25">T7</text><text alignment-baseline="central" font-size="8px" text-anchor="middle" x="170" y="35">V0</text><rect fill="rgb(175,175,255)" height="20" stroke="black" width="20" x="180" y="20" /><text alignment-baseline="central" font-size="8px" text-anchor="middle" x="190" y="25">T8</text><text alignment-baseline="central" font-size="8px" text-anchor="middle" x="190" y="35">V0</text><rect fill="rgb(175,255,175)" height="20" stroke="black" width="20" x="200" y="20" /><text alignment-baseline="central" font-size="8px" text-anchor="middle" x="210" y="25">T9</text><text alignment-baseline="central" font-size="8px" text-anchor="middle" x="210" y="35">V0</text><rect fill="rgb(255,255,175)" height="20" stroke="black" width="20" x="220" y="20" /><text alignment-baseline="central" font-size="8px" text-anchor="middle" x="230" y="25">T10</text><text alignment-baseline="central" font-size="8px" text-anchor="middle" x="230" y="35">V0</text><rect fill="rgb(255,175,175)" height="20" stroke="black" width="20" x="240" y="20" /><text alignment-baseline="central" font-size="8px" text-anchor="middle" x="250" y="25">T11</text><text alignment-baseline="central" font-size="8px" text-anchor="middle" x="250" y="35">V0</text><rect fill="rgb(210,210,255)" height="20" stroke="black" width="20" x="260" y="20" /><text alignment-baseline="central" font-size="8px" text-anchor="middle" x="270" y="25">T12</text><text alignment-baseline="central" font-size="8px" text-anchor="middle" x="270" y="35">V0</text><rect fill="rgb(210,255,210)" height="20" stroke="black" width="20" x="280" y="20" /><text alignment-baseline="central" font-size="8px" text-anchor="middle" x="290" y="25">T13</text><text alignment-baseline="central" font-size="8px" text-anchor="middle" x="290" y="35">V0</text><rect fill="rgb(255,255,210)" height="20" stroke="black" width="20" x="300" y="20" /><text alignment-baseline="central" font-size="8px" text-anchor="middle" x="310" y="25">T14</text><text alignment-baseline="central" font-size="8px" text-anchor="middle" x="310" y="35">V0</text><rect fill="rgb(255,210,210)" height="20" stroke="black" width="20" x="320" y="20" /><text alignment-baseline="central" font-size="8px" text-anchor="middle" x="330" y="25">T15</text><text alignment-baseline="central" font-size="8px" text-anchor="middle" x="330" y="35">V0</text><rect fill="rgb(175,175,255)" height="20" stroke="black" width="20" x="340" y="20" /><text alignment-baseline="central" font-size="8px" text-anchor="middle" x="350" y="25">T16</text><text alignment-baseline="central" font-size="8px" text-anchor="middle" x="350" y="35">V0</text><rect fill="rgb(175,255,175)" height="20" stroke="black" width="20" x="360" y="20" /><text alignment-baseline="central" font-size="8px" text-anchor="middle" x="370" y="25">T17</text><text alignment-baseline="central" font-size="8px" text-anchor="middle" x="370" y="35">V0</text><rect fill="rgb(255,255,175)" height="20" stroke="black" width="20" x="380" y="20" /><text alignment-baseline="central" font-size="8px" text-anchor="middle" x="390" y="25">T18</text><text alignment-baseline="central" font-size="8px" text-anchor="middle" x="390" y="35">V0</text><rect fill="rgb(255,175,175)" height="20" stroke="black" width="20" x="400" y="20" /><text alignment-baseline="central" font-size="8px" text-anchor="middle" x="410" y="25">T19</text><text alignment-baseline="central" font-size="8px" text-anchor="middle" x="410" y="35">V0</text><rect fill="rgb(210,210,255)" height="20" stroke="black" width="20" x="420" y="20" /><text alignment-baseline="central" font-size="8px" text-anchor="middle" x="430" y="25">T20</text><text alignment-baseline="central" font-size="8px" text-anchor="middle" x="430" y="35">V0</text><rect fill="rgb(210,255,210)" height="20" stroke="black" width="20" x="440" y="20" /><text alignment-baseline="central" font-size="8px" text-anchor="middle" x="450" y="25">T21</text><text alignment-baseline="central" font-size="8px" text-anchor="middle" x="450" y="35">V0</text><rect fill="rgb(255,255,210)" height="20" stroke="black" width="20" x="460" y="20" /><text alignment-baseline="central" font-size="8px" text-anchor="middle" x="470" y="25">T22</text><text alignment-baseline="central" font-size="8px" text-anchor="middle" x="470" y="35">V0</text><rect fill="rgb(255,210,210)" height="20" stroke="black" width="20" x="480" y="20" /><text alignment-baseline="central" font-size="8px" text-anchor="middle" x="490" y="25">T23</text><text alignment-baseline="central" font-size="8px" text-anchor="middle" x="490" y="35">V0</text><rect fill="rgb(175,175,255)" height="20" stroke="black" width="20" x="500" y="20" /><text alignment-baseline="central" font-size="8px" text-anchor="middle" x="510" y="25">T24</text><text alignment-baseline="central" font-size="8px" text-anchor="middle" x="510" y="35">V0</text><rect fill="rgb(175,255,175)" height="20" stroke="black" width="20" x="520" y="20" /><text alignment-baseline="central" font-size="8px" text-anchor="middle" x="530" y="25">T25</text><text alignment-baseline="central" font-size="8px" text-anchor="middle" x="530" y="35">V0</text><rect fill="rgb(255,255,175)" height="20" stroke="black" width="20" x="540" y="20" /><text alignment-baseline="central" font-size="8px" text-anchor="middle" x="550" y="25">T26</text><text alignment-baseline="central" font-size="8px" text-anchor="middle" x="550" y="35">V0</text><rect fill="rgb(255,175,175)" height="20" stroke="black" width="20" x="560" y="20" /><text alignment-baseline="central" font-size="8px" text-anchor="middle" x="570" y="25">T27</text><text alignment-baseline="central" font-size="8px" text-anchor="middle" x="570" y="35">V0</text><rect fill="rgb(210,210,255)" height="20" stroke="black" width="20" x="580" y="20" /><text alignment-baseline="central" font-size="8px" text-anchor="middle" x="590" y="25">T28</text><text alignment-baseline="central" font-size="8px" text-anchor="middle" x="590" y="35">V0</text><rect fill="rgb(210,255,210)" height="20" stroke="black" width="20" x="600" y="20" /><text alignment-baseline="central" font-size="8px" text-anchor="middle" x="610" y="25">T29</text><text alignment-baseline="central" font-size="8px" text-anchor="middle" x="610" y="35">V0</text><rect fill="rgb(255,255,210)" height="20" stroke="black" width="20" x="620" y="20" /><text alignment-baseline="central" font-size="8px" text-anchor="middle" x="630" y="25">T30</text><text alignment-baseline="central" font-size="8px" text-anchor="middle" x="630" y="35">V0</text><rect fill="rgb(255,210,210)" height="20" stroke="black" width="20" x="640" y="20" /><text alignment-baseline="central" font-size="8px" text-anchor="middle" x="650" y="25">T31</text><text alignment-baseline="central" font-size="8px" text-anchor="middle" x="650" y="35">V0</text><text alignment-baseline="central" font-size="8px" text-anchor="middle" x="30" y="10">0</text><text alignment-baseline="central" font-size="8px" text-anchor="middle" x="50" y="10">1</text><text alignment-baseline="central" font-size="8px" text-anchor="middle" x="70" y="10">2</text><text alignment-baseline="central" font-size="8px" text-anchor="middle" x="90" y="10">3</text><text alignment-baseline="central" font-size="8px" text-anchor="middle" x="110" y="10">4</text><text alignment-baseline="central" font-size="8px" text-anchor="middle" x="130" y="10">5</text><text alignment-baseline="central" font-size="8px" text-anchor="middle" x="150" y="10">6</text><text alignment-baseline="central" font-size="8px" text-anchor="middle" x="170" y="10">7</text><text alignment-baseline="central" font-size="8px" text-anchor="middle" x="190" y="10">8</text><text alignment-baseline="central" font-size="8px" text-anchor="middle" x="210" y="10">9</text><text alignment-baseline="central" font-size="8px" text-anchor="middle" x="230" y="10">10</text><text alignment-baseline="central" font-size="8px" text-anchor="middle" x="250" y="10">11</text><text alignment-baseline="central" font-size="8px" text-anchor="middle" x="270" y="10">12</text><text alignment-baseline="central" font-size="8px" text-anchor="middle" x="290" y="10">13</text><text alignment-baseline="central" font-size="8px" text-anchor="middle" x="310" y="10">14</text><text alignment-baseline="central" font-size="8px" text-anchor="middle" x="330" y="10">15</text><text alignment-baseline="central" font-size="8px" text-anchor="middle" x="350" y="10">16</text><text alignment-baseline="central" font-size="8px" text-anchor="middle" x="370" y="10">17</text><text alignment-baseline="central" font-size="8px" text-anchor="middle" x="390" y="10">18</text><text alignment-baseline="central" font-size="8px" text-anchor="middle" x="410" y="10">19</text><text alignment-baseline="central" font-size="8px" text-anchor="middle" x="430" y="10">20</text><text alignment-baseline="central" font-size="8px" text-anchor="middle" x="450" y="10">21</text><text alignment-baseline="central" font-size="8px" text-anchor="middle" x="470" y="10">22</text><text alignment-baseline="central" font-size="8px" text-anchor="middle" x="490" y="10">23</text><text alignment-baseline="central" font-size="8px" text-anchor="middle" x="510" y="10">24</text><text alignment-baseline="central" font-size="8px" text-anchor="middle" x="530" y="10">25</text><text alignment-baseline="central" font-size="8px" text-anchor="middle" x="550" y="10">26</text><text alignment-baseline="central" font-size="8px" text-anchor="middle" x="570" y="10">27</text><text alignment-baseline="central" font-size="8px" text-anchor="middle" x="590" y="10">28</text><text alignment-baseline="central" font-size="8px" text-anchor="middle" x="610" y="10">29</text><text alignment-baseline="central" font-size="8px" text-anchor="middle" x="630" y="10">30</text><text alignment-baseline="central" font-size="8px" text-anchor="middle" x="650" y="10">31</text><text alignment-baseline="central" font-size="8px" text-anchor="middle" x="10" y="30">0</text></svg>